<svg xmlns="http://www.w3.org/2000/svg" xmlns:xlink="http://www.w3.org/1999/xlink" width="219" height="219" viewBox="0 0 219 219">
  <defs>
    <linearGradient id="linear-gradient" x1="0.5" y1="1" x2="0.5" gradientUnits="objectBoundingBox">
      <stop offset="0" stop-color="#08b160"/>
      <stop offset="1" stop-color="#34ff4f"/>
    </linearGradient>
    <linearGradient id="linear-gradient-2" x1="0.5" y1="1" x2="0.5" gradientUnits="objectBoundingBox">
      <stop offset="0" stop-color="#c3f383"/>
      <stop offset="1" stop-color="#dfff9e"/>
    </linearGradient>
  </defs>
  <g id="Group_70" data-name="Group 70" transform="translate(-0.319)">
    <g id="Group_69" data-name="Group 69">
      <g id="Group_65" data-name="Group 65">
        <rect id="Rectangle_21" data-name="Rectangle 21" width="219" height="219" transform="translate(0.319)" fill="none"/>
        <g id="best-seller" transform="translate(22 1)">
          <path id="Path_31" data-name="Path 31" d="M220.165,91.51a5.167,5.167,0,0,1,0-4.837l2.675-5.053a18.015,18.015,0,0,0-5.2-22.791l-4.6-3.392a5.164,5.164,0,0,1-2.1-4.357l.218-5.713A18.016,18.016,0,0,0,196.58,27.091l-5.618-1.059a5.164,5.164,0,0,1-3.781-3.016L184.9,17.774A18.014,18.014,0,0,0,163.836,7.631l-5.521,1.483A5.166,5.166,0,0,1,153.6,8.038l-4.331-3.732a18.017,18.017,0,0,0-23.376,0l-4.331,3.732a5.165,5.165,0,0,1-4.715,1.076l-5.521-1.483A18.015,18.015,0,0,0,90.263,17.774L87.98,23.016A5.164,5.164,0,0,1,84.2,26.031l-5.618,1.059A18.016,18.016,0,0,0,64.006,45.367l.217,5.713a5.164,5.164,0,0,1-2.1,4.357l-4.6,3.392a18.016,18.016,0,0,0-5.2,22.791L55,86.673a5.164,5.164,0,0,1,0,4.837l-2.675,5.053a18.016,18.016,0,0,0,5.2,22.791l4.6,3.392a5.164,5.164,0,0,1,2.1,4.358l-.217,5.713A18.015,18.015,0,0,0,78.58,151.092l2.947.556.435,13.609,31.417,15.964,13.627-6.464a18.039,18.039,0,0,0,21,.107l11.223,7.631,31.417-16.028,2.8-14.784,3.131-.591a18.015,18.015,0,0,0,14.575-18.277l-.218-5.712a5.165,5.165,0,0,1,2.1-4.358l4.6-3.392a18.015,18.015,0,0,0,5.2-22.791Z" transform="translate(-50.267 0)" fill="url(#linear-gradient)"/>
          <g id="Group_53" data-name="Group 53" transform="translate(10.165 31.775)">
            <g id="Group_52" data-name="Group 52">
              <path id="Path_32" data-name="Path 32" d="M208.673,132.158a57.315,57.315,0,1,0-57.315,57.315,57.381,57.381,0,0,0,57.315-57.315Zm-28.643-3.312-9.716,9.471,2.293,13.373a6.369,6.369,0,0,1-9.241,6.714l-12.01-6.314-12.01,6.314a6.368,6.368,0,0,1-9.24-6.714l2.293-13.373-9.716-9.471a6.368,6.368,0,0,1,3.53-10.862l13.427-1.951,6-12.167a6.368,6.368,0,0,1,11.422,0l6,12.167,13.427,1.951a6.369,6.369,0,0,1,3.53,10.863Zm-44.691,84.364a5.166,5.166,0,0,0-4.715-1.076l-5.521,1.483a18.014,18.014,0,0,1-21.062-10.143l-2.283-5.241a5.166,5.166,0,0,0-3.782-3.016l-2.671-.5-20.3,36.679a6.369,6.369,0,0,0,5.982,9.439l18.64-1.2,8.31,17.153a6.369,6.369,0,0,0,5.57,3.59l.162,0a6.369,6.369,0,0,0,5.583-3.305l21.531-39.246c-.38-.278-.754-.569-1.115-.881Zm92.167,18.183-20.279-36.645-2.487.469a5.163,5.163,0,0,0-3.781,3.016l-2.283,5.242a18.044,18.044,0,0,1-16.485,10.746,17.631,17.631,0,0,1-4.576-.6l-5.521-1.483a5.165,5.165,0,0,0-4.715,1.076l-4.331,3.732q-.611.527-1.258.988l21.471,39.139a6.368,6.368,0,0,0,5.583,3.306l.162,0a6.368,6.368,0,0,0,5.57-3.59l8.31-17.153,18.64,1.2a6.368,6.368,0,0,0,5.982-9.439Z" transform="translate(-74.211 -74.843)" fill="url(#linear-gradient-2)"/>
            </g>
          </g>
        </g>
      </g>
    </g>
  </g>
</svg>
