<svg id="Group_67" data-name="Group 67" xmlns="http://www.w3.org/2000/svg" xmlns:xlink="http://www.w3.org/1999/xlink" width="219" height="219" viewBox="0 0 219 219">
  <defs>
    <linearGradient id="linear-gradient" x1="0.5" y1="1" x2="0.5" gradientUnits="objectBoundingBox">
      <stop offset="0" stop-color="#c3f383"/>
      <stop offset="1" stop-color="#dfff9e"/>
    </linearGradient>
    <linearGradient id="linear-gradient-2" x1="0.5" y1="1" x2="0.5" gradientUnits="objectBoundingBox">
      <stop offset="0" stop-color="#08b160"/>
      <stop offset="1" stop-color="#34ff4f"/>
    </linearGradient>
  </defs>
  <rect id="Rectangle_19" data-name="Rectangle 19" width="219" height="219" fill="none"/>
  <g id="pilot" transform="translate(14 1)">
    <g id="Group_59" data-name="Group 59" transform="translate(12.737)">
      <g id="Group_58" data-name="Group 58">
        <path id="Path_35" data-name="Path 35" d="M73.737,164.05,61,184.683l19.105,19.105L99.21,184.683,86.474,160.229A41.3,41.3,0,0,0,73.737,164.05Zm127.368-94-13.247-6.368L142.94,55.617,99.386,63.684,86.474,70.052v38.21l13.247,6.368a44.19,44.19,0,0,0,24.964,33.879v36.173l12.737,32.691h12.737l12.737-32.691V148.51a44.116,44.116,0,0,0,11.972-8.406l3.821-6.368,5.349-6.368a43.359,43.359,0,0,0,3.821-12.737l13.247-6.368Zm12.737,94a41.952,41.952,0,0,0-12.737-3.821l-12.737,24.455,19.105,19.105,19.105-19.105ZM143.789,12.737A57.378,57.378,0,0,1,201.1,70.052a6.368,6.368,0,1,0,12.737,0,70.052,70.052,0,1,0-140.1,0,6.368,6.368,0,0,0,12.737,0A57.378,57.378,0,0,1,143.789,12.737Z" transform="translate(-61)" fill="url(#linear-gradient)"/>
      </g>
    </g>
    <g id="Group_61" data-name="Group 61" transform="translate(0 25.474)">
      <g id="Group_60" data-name="Group 60">
        <path id="Path_36" data-name="Path 36" d="M171.1,142.789a34.823,34.823,0,0,1-.51,6.368h13.247v6.368a6.306,6.306,0,0,1-6.368,6.368H155.056a6.368,6.368,0,0,0,0,12.737h22.417a19.079,19.079,0,0,0,19.105-19.105V104.579a6.306,6.306,0,0,0-6.368-6.368H170.595a34.823,34.823,0,0,1,.51,6.368ZM62.842,149.157H82.457a34.824,34.824,0,0,1-.51-6.368v-38.21a35.126,35.126,0,0,1,.175-6.368H62.842a6.306,6.306,0,0,0-6.368,6.368v38.21A6.306,6.306,0,0,0,62.842,149.157Zm133.736,49.419V219.21a6.368,6.368,0,1,1-12.737,0V194.755l-38.21-6.368L130.9,202.328a6.368,6.368,0,0,1-8.756,0l-14.727-13.941-38.21,6.368V219.21a6.368,6.368,0,1,1-12.737,0V198.576A44.207,44.207,0,0,0,31,238.824v6.708a6.306,6.306,0,0,0,6.368,6.368h82.789V219.21a6.368,6.368,0,0,1,12.737,0V251.9h82.789a6.306,6.306,0,0,0,6.368-6.368v-6.708A44.207,44.207,0,0,0,196.578,198.576Zm-63.684-55.787a6.368,6.368,0,0,1-12.737,0,6.368,6.368,0,1,0-12.737,0,19.105,19.105,0,1,0,38.21,0,6.368,6.368,0,1,0-12.737,0ZM113.526,98.21a6.376,6.376,0,0,1,6.368,6.368,6.369,6.369,0,0,0,6.368,6.368h.051a6.369,6.369,0,0,0,6.368-6.368,6.376,6.376,0,0,1,6.368-6.368s27.361,0,31.544,0A45.277,45.277,0,0,0,167.154,86.8,44.6,44.6,0,0,0,82.123,98.21h31.4Z" transform="translate(-31 -60)" fill="url(#linear-gradient-2)"/>
      </g>
    </g>
  </g>
</svg>
