<svg xmlns="http://www.w3.org/2000/svg" xmlns:xlink="http://www.w3.org/1999/xlink" width="219" height="219" viewBox="0 0 219 219">
  <defs>
    <linearGradient id="linear-gradient" x1="0.5" y1="1" x2="0.5" gradientUnits="objectBoundingBox">
      <stop offset="0" stop-color="#c3f383"/>
      <stop offset="1" stop-color="#dfff9e"/>
    </linearGradient>
    <linearGradient id="linear-gradient-2" x1="0.5" y1="1" x2="0.5" gradientUnits="objectBoundingBox">
      <stop offset="0" stop-color="#08b160"/>
      <stop offset="1" stop-color="#34ff4f"/>
    </linearGradient>
  </defs>
  <g id="Group_66" data-name="Group 66" transform="translate(0.287)">
    <g id="Group_68" data-name="Group 68">
      <rect id="Rectangle_20" data-name="Rectangle 20" width="219" height="219" transform="translate(-0.287)" fill="none"/>
      <g id="delivery-bike" transform="translate(1 27)">
        <g id="Group_55" data-name="Group 55" transform="translate(0 0)">
          <g id="Group_54" data-name="Group 54">
            <path id="Path_33" data-name="Path 33" d="M50.947,226.578A38.313,38.313,0,0,0,88.392,196H13.5A38.313,38.313,0,0,0,50.947,226.578ZM128.557,196a38.218,38.218,0,0,0,74.891,0ZM168.795,99.21h12.793a6.368,6.368,0,0,0,0-12.737H168.795a6.368,6.368,0,0,0,0,12.737ZM47.662,137.421l9.653-12.737a6.365,6.365,0,0,0,6.368-6.368V67.368A6.365,6.365,0,0,0,57.315,61H38.21L31.842,73.737,25.474,61H6.368A6.365,6.365,0,0,0,0,67.368v50.947a6.365,6.365,0,0,0,6.368,6.368H38.21Z" transform="translate(0 -61)" fill="url(#linear-gradient)"/>
          </g>
        </g>
        <g id="Group_57" data-name="Group 57" transform="translate(0 0)">
          <g id="Group_56" data-name="Group 56">
            <path id="Path_34" data-name="Path 34" d="M31.842,86.474a6.365,6.365,0,0,0,6.368-6.368V61H25.474V80.105A6.365,6.365,0,0,0,31.842,86.474Zm159.634,76.421H187.4L174.889,83.663C173.238,68.789,158.274,61,153.266,61H134.161a6.368,6.368,0,1,0,0,12.737h14.2L162.85,175.631H76.421v-38.21h6.368a6.368,6.368,0,0,0,0-12.737H38.21C17.992,124.684,0,153.173,0,175.631v19.105A6.365,6.365,0,0,0,6.368,201.1H211.006a6.365,6.365,0,0,0,6.368-6.368v-6.368C217.374,174.319,205.525,162.894,191.476,162.894Z" transform="translate(0 -61)" fill="url(#linear-gradient-2)"/>
          </g>
        </g>
      </g>
    </g>
  </g>
</svg>
